<svg xmlns="http://www.w3.org/2000/svg" viewBox="0 0 64 64">
  <rect width="64" height="64" rx="10" fill="#0c0a09"/>
  <!-- Left wing -->
  <path d="M29 22 C22 18 10 17 2 21 C10 22 22 24 29 27Z" fill="#d4922a"/>
  <path d="M29 27 C20 25 8 24 1 28 C9 29 21 30 29 31Z" fill="#d4922a"/>
  <path d="M29 31 C20 31 9 32 3 36 C10 35 21 34 29 33Z" fill="#d4922a"/>
  <!-- Right wing -->
  <path d="M35 22 C42 18 54 17 62 21 C54 22 42 24 35 27Z" fill="#d4922a"/>
  <path d="M35 27 C44 25 56 24 63 28 C55 29 43 30 35 31Z" fill="#d4922a"/>
  <path d="M35 31 C44 31 55 32 61 36 C54 35 43 34 35 33Z" fill="#d4922a"/>
  <!-- Outer badge ring -->
  <circle cx="32" cy="29" r="14" fill="#d4922a"/>
  <!-- Black ring -->
  <circle cx="32" cy="29" r="12.5" fill="#1a1008"/>
  <!-- Inner amber -->
  <circle cx="32" cy="29" r="11" fill="#d4922a"/>
  <!-- Center dark -->
  <circle cx="32" cy="29" r="8" fill="#1a1008"/>
  <!-- CAFE -->
  <text x="32" y="26.5" text-anchor="middle" font-family="Georgia,serif" font-weight="bold" font-size="4" fill="#d4922a">CAFE</text>
  <!-- HOOKAH -->
  <text x="32" y="31" text-anchor="middle" font-family="Georgia,serif" font-weight="bold" font-size="4" fill="#d4922a">HOOKAH</text>
  <!-- PUB -->
  <text x="32" y="35" text-anchor="middle" font-family="Georgia,serif" font-weight="bold" font-size="3.2" fill="#d4922a">PUB</text>
</svg>
